<svg xmlns="http://www.w3.org/2000/svg" viewBox="0 0 32 32" width="32" height="32">
  <rect width="32" height="32" fill="#fff"/>
  <!-- Exact pixel-perfect M logo from original HTML grid -->
  <g fill="#111">
    <!-- Row 0 -->
    <rect x="4" y="2" width="2" height="2"/>
    <rect x="6" y="2" width="2" height="2"/>
    <rect x="26" y="2" width="2" height="2"/>
    <rect x="28" y="2" width="2" height="2"/>
    <!-- Row 1 -->
    <rect x="4" y="4" width="2" height="2"/>
    <rect x="6" y="4" width="2" height="2"/>
    <rect x="8" y="4" width="2" height="2"/>
    <rect x="24" y="4" width="2" height="2"/>
    <rect x="26" y="4" width="2" height="2"/>
    <rect x="28" y="4" width="2" height="2"/>
    <!-- Row 2 -->
    <rect x="4" y="6" width="2" height="2"/>
    <rect x="6" y="6" width="2" height="2"/>
    <rect x="8" y="6" width="2" height="2"/>
    <rect x="10" y="6" width="2" height="2"/>
    <rect x="22" y="6" width="2" height="2"/>
    <rect x="24" y="6" width="2" height="2"/>
    <rect x="26" y="6" width="2" height="2"/>
    <rect x="28" y="6" width="2" height="2"/>
    <!-- Row 3 -->
    <rect x="4" y="8" width="2" height="2"/>
    <rect x="6" y="8" width="2" height="2"/>
    <rect x="8" y="8" width="2" height="2"/>
    <rect x="10" y="8" width="2" height="2"/>
    <rect x="12" y="8" width="2" height="2"/>
    <rect x="20" y="8" width="2" height="2"/>
    <rect x="22" y="8" width="2" height="2"/>
    <rect x="24" y="8" width="2" height="2"/>
    <rect x="26" y="8" width="2" height="2"/>
    <rect x="28" y="8" width="2" height="2"/>
    <!-- Row 4 -->
    <rect x="4" y="10" width="2" height="2"/>
    <rect x="6" y="10" width="2" height="2"/>
    <rect x="8" y="10" width="2" height="2"/>
    <rect x="10" y="10" width="2" height="2"/>
    <rect x="12" y="10" width="2" height="2"/>
    <rect x="14" y="10" width="2" height="2"/>
    <rect x="18" y="10" width="2" height="2"/>
    <rect x="20" y="10" width="2" height="2"/>
    <rect x="22" y="10" width="2" height="2"/>
    <rect x="24" y="10" width="2" height="2"/>
    <rect x="26" y="10" width="2" height="2"/>
    <!-- Row 5 -->
    <rect x="4" y="12" width="2" height="2"/>
    <rect x="6" y="12" width="2" height="2"/>
    <rect x="8" y="12" width="2" height="2"/>
    <rect x="10" y="12" width="2" height="2"/>
    <rect x="12" y="12" width="2" height="2"/>
    <rect x="14" y="12" width="2" height="2"/>
    <rect x="16" y="12" width="2" height="2"/>
    <rect x="18" y="12" width="2" height="2"/>
    <rect x="20" y="12" width="2" height="2"/>
    <rect x="22" y="12" width="2" height="2"/>
    <rect x="24" y="12" width="2" height="2"/>
    <!-- Row 6 -->
    <rect x="4" y="14" width="2" height="2"/>
    <rect x="6" y="14" width="2" height="2"/>
    <rect x="8" y="14" width="2" height="2"/>
    <rect x="12" y="14" width="2" height="2"/>
    <rect x="14" y="14" width="2" height="2"/>
    <rect x="16" y="14" width="2" height="2"/>
    <rect x="18" y="14" width="2" height="2"/>
    <rect x="20" y="14" width="2" height="2"/>
    <rect x="22" y="14" width="2" height="2"/>
    <rect x="24" y="14" width="2" height="2"/>
    <!-- Row 7 -->
    <rect x="4" y="16" width="2" height="2"/>
    <rect x="6" y="16" width="2" height="2"/>
    <rect x="8" y="16" width="2" height="2"/>
    <rect x="14" y="16" width="2" height="2"/>
    <rect x="16" y="16" width="2" height="2"/>
    <rect x="18" y="16" width="2" height="2"/>
    <rect x="20" y="16" width="2" height="2"/>
    <!-- Row 8 -->
    <rect x="4" y="18" width="2" height="2"/>
    <rect x="6" y="18" width="2" height="2"/>
    <rect x="8" y="18" width="2" height="2"/>
    <rect x="16" y="18" width="2" height="2"/>
    <rect x="18" y="18" width="2" height="2"/>
    <rect x="26" y="18" width="2" height="2"/>
    <rect x="28" y="18" width="2" height="2"/>
    <rect x="30" y="18" width="2" height="2"/>
    <!-- Row 9 -->
    <rect x="4" y="20" width="2" height="2"/>
    <rect x="6" y="20" width="2" height="2"/>
    <rect x="8" y="20" width="2" height="2"/>
    <rect x="18" y="20" width="2" height="2"/>
    <rect x="26" y="20" width="2" height="2"/>
    <rect x="28" y="20" width="2" height="2"/>
    <rect x="30" y="20" width="2" height="2"/>
    <!-- Row 10 -->
    <rect x="4" y="22" width="2" height="2"/>
    <rect x="6" y="22" width="2" height="2"/>
    <rect x="8" y="22" width="2" height="2"/>
    <rect x="18" y="22" width="2" height="2"/>
    <rect x="26" y="22" width="2" height="2"/>
    <rect x="28" y="22" width="2" height="2"/>
    <rect x="30" y="22" width="2" height="2"/>
    <!-- Row 11 -->
    <rect x="4" y="24" width="2" height="2"/>
    <rect x="6" y="24" width="2" height="2"/>
    <rect x="8" y="24" width="2" height="2"/>
    <rect x="16" y="24" width="2" height="2"/>
    <rect x="18" y="24" width="2" height="2"/>
    <rect x="20" y="24" width="2" height="2"/>
    <rect x="26" y="24" width="2" height="2"/>
    <rect x="28" y="24" width="2" height="2"/>
    <rect x="30" y="24" width="2" height="2"/>
    <!-- Row 12 -->
    <rect x="4" y="26" width="2" height="2"/>
    <rect x="6" y="26" width="2" height="2"/>
    <rect x="8" y="26" width="2" height="2"/>
    <rect x="14" y="26" width="2" height="2"/>
    <rect x="16" y="26" width="2" height="2"/>
    <rect x="18" y="26" width="2" height="2"/>
    <rect x="20" y="26" width="2" height="2"/>
    <rect x="22" y="26" width="2" height="2"/>
    <rect x="26" y="26" width="2" height="2"/>
    <rect x="28" y="26" width="2" height="2"/>
    <rect x="30" y="26" width="2" height="2"/>
    <!-- Rows 13-17 (same pattern) -->
    <rect x="4" y="28" width="2" height="2"/>
    <rect x="6" y="28" width="2" height="2"/>
    <rect x="8" y="28" width="2" height="2"/>
    <rect x="26" y="28" width="2" height="2"/>
    <rect x="28" y="28" width="2" height="2"/>
    <rect x="30" y="28" width="2" height="2"/>
  </g>
</svg>
